<svg width="20" height="20" viewBox="0 0 20 20" fill="none" xmlns="http://www.w3.org/2000/svg">
<g id="egg_black_24dp 1" clip-path="url(#clip0_1437_131)">
<g id="Group">
<g id="Group_2">
<path id="Vector" d="M10 2.5C7.08335 2.5 4.16669 7.775 4.16669 11.6667C4.16669 14.8917 6.77502 17.5 10 17.5C13.225 17.5 15.8334 14.8917 15.8334 11.6667C15.8334 7.775 12.9167 2.5 10 2.5ZM10 15.8333C7.70002 15.8333 5.83335 13.9667 5.83335 11.6667C5.83335 8.25833 8.39169 4.16667 10 4.16667C11.6084 4.16667 14.1667 8.25833 14.1667 11.6667C14.1667 13.9667 12.3 15.8333 10 15.8333Z" fill="white"/>
<path id="Vector_2" d="M10.8334 13.3333C10.35 13.3333 8.33335 13.2667 8.33335 10.8333C8.33335 10.375 7.95835 10 7.50002 10C7.04169 10 6.66669 10.375 6.66669 10.8333C6.66669 13.3333 8.32502 15 10.8334 15C11.2917 15 11.6667 14.625 11.6667 14.1667C11.6667 13.7083 11.2917 13.3333 10.8334 13.3333Z" fill="white"/>
</g>
</g>
</g>
<defs>
<clipPath id="clip0_1437_131">
<rect width="20" height="20" fill="white"/>
</clipPath>
</defs>
</svg>
